<svg width="176" height="39" viewBox="0 0 176 39" fill="none" xmlns="http://www.w3.org/2000/svg">
<rect x="0.5" y="0.5" width="72" height="38" fill="#F2F2F2" stroke="black"/>
<rect x="73" width="60" height="39" fill="black"/>
<path d="M12.138 24.3829L7 7H11.2509L14.3558 18.8486L17.4608 7H21.342L16.204 24.3829V33H12.138V24.3829Z" fill="black"/>
<path d="M34.3407 33H30.2377L29.5353 28.2829H24.5452L23.8429 33H20.1095L24.2495 7H30.2007L34.3407 33ZM25.0627 24.7543H28.9809L27.0218 11.6057L25.0627 24.7543Z" fill="black"/>
<path d="M35.0514 7H47.6191V10.7143H43.3683V33H39.3022V10.7143H35.0514V7Z" fill="black"/>
<path d="M57.9116 33C57.8623 32.8267 57.813 32.6657 57.7637 32.5171C57.7144 32.3686 57.6651 32.1829 57.6159 31.96C57.5912 31.7371 57.5666 31.4524 57.5419 31.1057C57.5419 30.759 57.5419 30.3257 57.5419 29.8057V25.72C57.5419 24.5067 57.3325 23.6524 56.9135 23.1571C56.4946 22.6619 55.8169 22.4143 54.8805 22.4143H53.4759V33H49.4099V7H55.5459C57.6651 7 59.193 7.49524 60.1294 8.48572C61.0905 9.47619 61.571 10.9743 61.571 12.98V15.0229C61.571 17.6971 60.6839 19.4552 58.9096 20.2971C59.9446 20.7181 60.6469 21.4114 61.0165 22.3771C61.4108 23.3181 61.608 24.4695 61.608 25.8314V29.8429C61.608 30.4867 61.6326 31.0562 61.6819 31.5514C61.7312 32.0219 61.8544 32.5048 62.0515 33H57.9116ZM53.4759 10.7143V18.7H55.0653C55.8293 18.7 56.4207 18.5019 56.8396 18.1057C57.2832 17.7095 57.505 16.9914 57.505 15.9514V13.3886C57.505 12.4476 57.3325 11.7667 56.9875 11.3457C56.6671 10.9248 56.1496 10.7143 55.435 10.7143H53.4759Z" fill="black"/>
<path d="M64.2821 7H68.3481V33H64.2821V7Z" fill="black"/>
<path d="M83.0488 7C85.0942 7 86.6097 7.54476 87.5954 8.63429C88.6058 9.72381 89.1109 11.321 89.1109 13.4257V16.8057C89.1109 18.9105 88.6058 20.5076 87.5954 21.5971C86.6097 22.6867 85.0942 23.2314 83.0488 23.2314H81.1267V33H77.0607V7H83.0488ZM81.1267 10.7143V19.5171H83.0488C83.6895 19.5171 84.1824 19.3438 84.5274 18.9971C84.8724 18.6505 85.0449 18.0067 85.0449 17.0657V13.1657C85.0449 12.2248 84.8724 11.581 84.5274 11.2343C84.1824 10.8876 83.6895 10.7143 83.0488 10.7143H81.1267Z" fill="#F2F2F2"/>
<path d="M103.865 33H99.7618L99.0594 28.2829H94.0693L93.367 33H89.6336L93.7736 7H99.7248L103.865 33ZM94.5868 24.7543H98.505L96.5459 11.6057L94.5868 24.7543Z" fill="#F2F2F2"/>
<path d="M104.575 7H117.143V10.7143H112.892V33H108.826V10.7143H104.575V7Z" fill="#F2F2F2"/>
<path d="M118.934 7H123V33H118.934V7Z" fill="#F2F2F2"/>
<path fill-rule="evenodd" clip-rule="evenodd" d="M172.291 0.395975C171.909 0.620261 169.291 2.71158 166.474 5.04315L161.351 9.28221L151.021 5.5595L140.691 1.8368L138.687 3.47386C137.162 4.7195 136.784 5.20391 137.106 5.50095C137.339 5.7153 141.049 8.17676 145.351 10.9707C149.653 13.7644 153.216 16.0821 153.269 16.1211C153.321 16.1602 151.631 17.629 149.51 19.3853L145.656 22.5782L142.998 21.9476L140.34 21.3166L138.692 22.6563C138.692 22.6563 137.294 23.1996 137.044 23.9956C136.613 25.3705 140.053 26.088 140.053 26.088L143.062 28.18L144.295 31.3204C144.973 33.0476 145.683 34.4454 145.874 34.427C146.064 34.4082 146.803 33.9532 147.515 33.4159L148.811 32.4386L148.842 29.4221L148.874 26.4056L152.661 23.2993C155.938 20.6118 156.49 20.2768 156.752 20.8152C156.918 21.1573 158.525 25.3896 160.321 30.2206C162.118 35.0512 163.67 39.0021 163.768 39C163.867 38.9979 164.791 38.2342 165.822 37.303L167.695 35.6098L166.139 24.4956L164.584 13.3818L166.544 11.7313C167.623 10.8238 170.178 8.68104 172.224 6.9698C176.307 3.553 176.68 2.79639 175.221 0.902036C174.455 -0.0926971 173.427 -0.269783 172.291 0.395975Z" fill="black"/>
</svg>
